# xmcd CD database file
#
# Track frame offsets:
#	150
#	12858
#	27772
#	44164
#	68762
#	86408
#	104098
#	129321
#	152884
#	174086
#
# Disc length: 2492 seconds
#
# Revision: 0
# Processed by: cddbd v1.5.1PL2 Copyright (c) Steve Scherf et al.
# Submitted via: CDex 1.60beta1
#
DISCID=7909ba0a
DTITLE=平沼有梨 - まだ見ぬ映画のための音楽
DYEAR=2005
DGENRE=Easy Listening
TTITLE0=Encircle 〜悠久の華〜
TTITLE1=Recollection
TTITLE2=Little Wings
TTITLE3=月をスプーンですくったら
TTITLE4=赤とんぼ
TTITLE5=魔法の雨
TTITLE6=大事なのはつよく想うこと
TTITLE7=Spiritual Life
TTITLE8=そら
TTITLE9=Keep it Real
EXTD=YEAR: 2005
EXTT0=
EXTT1=
EXTT2=
EXTT3=
EXTT4=
EXTT5=
EXTT6=
EXTT7=
EXTT8=
EXTT9=
PLAYORDER=
